<svg xmlns="http://www.w3.org/2000/svg" version="1.1" xmlns:xlink="http://www.w3.org/1999/xlink" width="512" height="512" x="0" y="0" viewBox="0 0 512 512" style="enable-background:new 0 0 512 512" xml:space="preserve" class=""><g><g data-name="Layer_1"><g data-name="400429000"><path d="M276 386.91H53.64a21.75 21.75 0 0 1-21.73-21.72v-74.66c0-7.26 3.58-13.07 9.33-15.16l92.11-33.44a7 7 0 0 1 9.39 6.58c0 12.69 7.43 19.13 22.07 19.13s22.08-6.44 22.08-19.13a7 7 0 0 1 9.39-6.58l92.11 33.44c5.75 2.09 9.32 7.9 9.32 15.16v74.66A21.74 21.74 0 0 1 276 386.91zM46.3 288.43a5 5 0 0 0-.39 2.1v74.66a7.73 7.73 0 0 0 7.73 7.72H276a7.72 7.72 0 0 0 7.72-7.72v-74.66a5 5 0 0 0-.38-2.1L199.8 258.1c-3.62 14.91-16.13 23.54-35 23.54s-31.36-8.63-35-23.54z" data-name="266062032" fill="#000000" opacity="1" data-original="#000000"></path><path d="M221.52 185.7a7 7 0 0 1-6.93-8c5.69-40-15.13-48.71-15.34-48.8-23.83-9.55-43-9.92-57-1.1-23.4 14.76-26 51-26 51.33a7 7 0 0 1-12.34 4.07c-19.17-22.74-23.11-49-11.1-73.9 14.23-29.52 48.8-51.12 80.41-50.23 22.49.63 40 12.31 49.61 33 12.53 5.25 20.49 13.7 23.67 25.14 8 28.81-19.27 65.55-19.55 65.9a7 7 0 0 1-5.43 2.59zM171.35 73.05c-25.64 0-54.36 18.35-65.92 42.34-5.36 11.11-8.89 27.06 0 45 3.75-14.17 11.87-33.32 29.3-44.35 18-11.4 41.47-11.44 69.71-.11 1 .39 19.57 8.15 24.13 35.86 4.2-10.15 7.08-21.77 4.37-31.08-2.21-7.64-8-13.06-17.72-16.57a7 7 0 0 1-4.09-3.9c-9-21.81-25.82-26.8-38.29-27.15z" data-name="266061840" fill="#000000" opacity="1" data-original="#000000"></path><path d="M165.4 243c-26.81 0-50.29-23.24-62.79-62.18a7 7 0 1 1 13.33-4.28C126.49 209.41 145 229 165.4 229s38.91-19.61 49.46-52.46a7 7 0 1 1 13.33 4.28C215.69 219.77 192.21 243 165.4 243z" data-name="266061792" fill="#000000" opacity="1" data-original="#000000"></path><path d="M135.74 254.63a7 7 0 0 1-7-7v-24a7 7 0 0 1 14 0v24a7 7 0 0 1-7 7z" data-name="400450480" fill="#000000" opacity="1" data-original="#000000"></path><path d="M193.89 256.93a7 7 0 0 1-7-7v-25.32a7 7 0 0 1 14 0v25.32a7 7 0 0 1-7 7z" data-name="400443904" fill="#000000" opacity="1" data-original="#000000"></path><path d="M79.48 386.91a7 7 0 0 1-7-7V302a7 7 0 0 1 14 0v77.91a7 7 0 0 1-7 7z" data-name="400438480" fill="#000000" opacity="1" data-original="#000000"></path><path d="M250.15 386.91a7 7 0 0 1-7-7V302a7 7 0 1 1 14 0v77.91a7 7 0 0 1-7 7z" data-name="400431040" fill="#000000" opacity="1" data-original="#000000"></path><path d="M78.23 345.73H38.91a7 7 0 1 1 0-14h39.32a7 7 0 1 1 0 14z" data-name="400430440" fill="#000000" opacity="1" data-original="#000000"></path><path d="M290.71 345.73h-40.56a7 7 0 1 1 0-14h40.56a7 7 0 1 1 0 14z" data-name="400430104" fill="#000000" opacity="1" data-original="#000000"></path><path d="M164.81 386.91a7 7 0 0 1-7-7V274.64a7 7 0 0 1 14 0v105.27a7 7 0 0 1-7 7z" data-name="400430584" fill="#000000" opacity="1" data-original="#000000"></path><path d="M458.38 148.75h-41.66a7 7 0 0 1 0-14h41.66a7.7 7.7 0 0 0 0-15.4h-41.66a7 7 0 0 1 0-14h41.66a21.7 21.7 0 0 1 0 43.4z" data-name="400430344" fill="#000000" opacity="1" data-original="#000000"></path><path d="M456.54 181.83h-38a7 7 0 0 1 0-14h38a9.54 9.54 0 1 0 0-19.08h-38a7 7 0 1 1 0-14h38a23.54 23.54 0 1 1 0 47.08z" data-name="400429936" fill="#000000" opacity="1" data-original="#000000"></path><path d="M456.54 214.92h-38a7 7 0 0 1 0-14h38a9.55 9.55 0 1 0 0-19.09h-38a7 7 0 0 1 0-14h38a23.55 23.55 0 1 1 0 47.09z" data-name="400430296" fill="#000000" opacity="1" data-original="#000000"></path><path d="M456.55 248H323.4a7 7 0 0 1 0-14h133.15a9.54 9.54 0 0 0 0-19.08 7 7 0 0 1 0-14 23.54 23.54 0 0 1 0 47.08z" data-name="400430560" fill="#000000" opacity="1" data-original="#000000"></path><path d="M328.91 248h-53.39a7 7 0 0 1-7-7V127.05a7 7 0 0 1 7-7h53.39a7 7 0 0 1 7 7V241a7 7 0 0 1-7 7zm-46.39-14h39.39v-99.95h-39.39z" data-name="400430152" fill="#000000" opacity="1" data-original="#000000"></path><path d="M330.71 134.12a26.12 26.12 0 0 1-2.64-.12 7 7 0 0 1 1.62-13.91c1.33.13 28.92 2.15 48.31-42.14a98.94 98.94 0 0 0 7.84-33c.71-10.25 3.93-16.86 9.56-19.63 5-2.46 10.79-1.53 17.23 2.75a39.42 39.42 0 0 1 16.47 24.14c2.79 12.12 4.2 30.53-4.92 49.36-.17.36-.45.86-.79 1.46-1.21 2.09-1.83 3.52-1.84 4.24a7 7 0 0 1 .24 9.84 7 7 0 0 1-9.87.33c-5.59-5.27-5.82-12.47-.66-21.41.14-.24.26-.44.34-.6 7.32-15.12 6.14-30.15 3.85-40.08a25.42 25.42 0 0 0-10.58-15.62 11.25 11.25 0 0 0-3.32-1.67c-.52.84-1.42 3.17-1.74 7.86a112.84 112.84 0 0 1-9 37.65c-20.49 46.83-50.95 50.55-60.1 50.55z" data-name="400430368" fill="#000000" opacity="1" data-original="#000000"></path><path d="M302.22 193.81a7 7 0 0 1-7-7v-19.18a7 7 0 0 1 14 0v19.18a7 7 0 0 1-7 7z" data-name="400429528" fill="#000000" opacity="1" data-original="#000000"></path><path d="M87 488a7.22 7.22 0 0 1-2.28-.38L66 481.17l-18.75 6.45a7 7 0 0 1-9.25-6.74l.34-19.83-11.95-15.84a7 7 0 0 1 3.54-10.9l19-5.8 11.38-16.25a7 7 0 0 1 11.47 0l11.37 16.25 19 5.8a7 7 0 0 1 3.55 10.9l-12.01 15.84.31 19.83a7 7 0 0 1-7 7.12zm-21-21.24a7.13 7.13 0 0 1 2.28.38l11.58 4-.21-12.25a7 7 0 0 1 1.41-4.33l7.36-9.78-11.71-3.58a7 7 0 0 1-3.71-2.69l-7-10-7 10a7.05 7.05 0 0 1-3.69 2.68l-11.71 3.58 7.4 9.78a7 7 0 0 1 1.41 4.33l-.21 12.25 11.58-4a7 7 0 0 1 2.22-.37z" data-name="400429648" fill="#000000" opacity="1" data-original="#000000"></path><path d="M182 488a7.13 7.13 0 0 1-2.28-.38L161 481.17l-18.75 6.45a7 7 0 0 1-9.28-6.74l.35-19.83-11.93-15.84a7 7 0 0 1 3.54-10.9l19-5.8 11.38-16.25a7 7 0 0 1 11.46 0l11.38 16.25 19 5.8a7 7 0 0 1 3.55 10.9l-11.93 15.84.34 19.83a7 7 0 0 1-7 7.12zm-21-21.24a7.13 7.13 0 0 1 2.28.38l11.58 4-.21-12.25a7 7 0 0 1 1.4-4.33l7.37-9.78-11.71-3.58a7 7 0 0 1-3.68-2.68l-7-10-7 10a7.05 7.05 0 0 1-3.69 2.68l-11.71 3.58 7.37 9.78a7 7 0 0 1 1.41 4.33l-.22 12.25 11.58-4a7.13 7.13 0 0 1 2.23-.38z" data-name="400429456" fill="#000000" opacity="1" data-original="#000000"></path><path d="M235 488a7 7 0 0 1-7-7.12l.34-19.83-11.93-15.84a7 7 0 0 1 3.55-10.9l19-5.8 11.38-16.25a7 7 0 0 1 11.46 0l11.38 16.25 19 5.8a7 7 0 0 1 3.55 10.9l-11.93 15.84.34 19.83a7 7 0 0 1-9.28 6.74L256 481.17l-18.75 6.45a7.13 7.13 0 0 1-2.25.38zm-1.39-43.23 7.37 9.78a7 7 0 0 1 1.4 4.33l-.21 12.25 11.58-4a7.12 7.12 0 0 1 4.56 0l11.58 4-.21-12.25a7 7 0 0 1 1.4-4.33l7.37-9.78-11.71-3.58a7 7 0 0 1-3.68-2.68l-7-10-7 10a7 7 0 0 1-3.68 2.68z" data-name="400429624" fill="#000000" opacity="1" data-original="#000000"></path><path d="M372 488a7.11 7.11 0 0 1-2.27-.38L351 481.17l-18.75 6.45a7 7 0 0 1-9.28-6.74l.34-19.83-11.93-15.84a7 7 0 0 1 3.55-10.9l19-5.8 11.37-16.24a7 7 0 0 1 11.47 0l11.38 16.25 19 5.8a7 7 0 0 1 3.54 10.9l-11.93 15.84.34 19.83a7 7 0 0 1-7 7.12zm-21-21.24a7 7 0 0 1 2.27.38l11.58 4-.21-12.25a7 7 0 0 1 1.41-4.33l7.37-9.78-11.71-3.58a7.05 7.05 0 0 1-3.69-2.68l-7-10-7 10a7 7 0 0 1-3.68 2.68l-11.71 3.58 7.37 9.78a7 7 0 0 1 1.4 4.34l-.21 12.24 11.58-4a7.13 7.13 0 0 1 2.23-.38z" data-name="400429432" fill="#000000" opacity="1" data-original="#000000"></path><path d="M425 488a7 7 0 0 1-7-7.12l.34-19.83-11.93-15.84a7 7 0 0 1 3.54-10.9l19-5.8 11.37-16.25a7 7 0 0 1 5.74-3 7 7 0 0 1 5.73 3l11.38 16.25 19 5.8a7 7 0 0 1 3.54 10.9l-11.93 15.84.34 19.83a7 7 0 0 1-9.27 6.74L446 481.17l-18.75 6.45a7.22 7.22 0 0 1-2.25.38zm21-21.24a7 7 0 0 1 2.27.38l11.58 4-.21-12.25a7 7 0 0 1 1.41-4.33l7.37-9.78-11.71-3.58a7 7 0 0 1-3.69-2.68l-7-10-7 10a7 7 0 0 1-3.69 2.68l-11.7 3.58 7.36 9.78a7 7 0 0 1 1.41 4.34l-.21 12.24 11.58-4a7.13 7.13 0 0 1 2.23-.38z" data-name="400429744" fill="#000000" opacity="1" data-original="#000000"></path><path d="M418.83 379.11H326.7a7 7 0 1 1 0-14h92.13a7 7 0 1 1 0 14z" data-name="400429576" fill="#000000" opacity="1" data-original="#000000"></path><path d="M480 347.54H326.7a7 7 0 0 1 0-14H480a7 7 0 0 1 0 14z" data-name="400429600" fill="#000000" opacity="1" data-original="#000000"></path><path d="M418.83 316H326.7a7 7 0 0 1 0-14h92.13a7 7 0 0 1 0 14z" data-name="400429264" fill="#000000" opacity="1" data-original="#000000"></path><path d="M480 284.4H326.7a7 7 0 1 1 0-14H480a7 7 0 0 1 0 14z" data-name="400429288" fill="#000000" opacity="1" data-original="#000000"></path><path d="M480 379.11h-30.24a7 7 0 0 1 0-14H480a7 7 0 0 1 0 14z" data-name="400428376" fill="#000000" opacity="1" data-original="#000000"></path><path d="M480 316h-30.24a7 7 0 0 1 0-14H480a7 7 0 0 1 0 14z" data-name="400429048" fill="#000000" opacity="1" data-original="#000000"></path></g></g></g></svg>