<svg id="a" height="512" viewBox="0 0 100 100" width="512" xmlns="http://www.w3.org/2000/svg"><path d="m50 58.09c4.44 0 8.05-3.61 8.05-8.05s-3.61-8.05-8.05-8.05-8.05 3.61-8.05 8.05 3.61 8.05 8.05 8.05zm0-14.1c3.34 0 6.05 2.71 6.05 6.05s-2.71 6.05-6.05 6.05-6.05-2.71-6.05-6.05 2.71-6.05 6.05-6.05z"></path><path d="m50 25.66c5.22 0 9.46-4.24 9.46-9.46s-4.24-9.46-9.46-9.46-9.46 4.24-9.46 9.46 4.24 9.46 9.46 9.46zm-6.79-6.39h1.32c.1.81.24 1.61.43 2.41-.73-.67-1.33-1.49-1.75-2.41zm14.25-3.07c0 .37-.04.72-.09 1.07h-1.7c.03-.73.03-1.47 0-2.21h1.7c.06.37.1.75.1 1.13zm-3.79 1.07h-2.67v-2.21h2.66c.04.74.04 1.47 0 2.21zm-6.22 5.93c-.42-1.3-.72-2.61-.91-3.93h2.46v4.31c-.54-.07-1.05-.2-1.55-.38zm3.55-3.93h2.48c-.19 1.32-.49 2.63-.93 3.93-.5.18-1.01.31-1.55.38zm0-6.21v-4.25c.54.07 1.05.2 1.55.38.42 1.29.72 2.58.91 3.87zm-2 0h-2.44c.19-1.29.48-2.58.89-3.87.49-.18 1.01-.31 1.55-.38zm0 2v2.21h-2.64c-.03-.73-.03-1.47 0-2.21h2.63zm-4.64 2.21h-1.73c-.05-.35-.09-.71-.09-1.07 0-.39.04-.76.1-1.13h1.73c-.04.74-.04 1.47 0 2.21zm10.71 4.39c.19-.79.33-1.59.43-2.39h1.29c-.41.91-1 1.72-1.73 2.39zm1.7-8.6h-1.29c-.11-.78-.25-1.56-.43-2.35.72.66 1.3 1.45 1.72 2.35zm-11.79-2.36c-.18.79-.32 1.58-.42 2.36h-1.31c.42-.9 1.01-1.7 1.73-2.36z"></path><path d="m23.5 51.04c2.48 0 4.5-2.02 4.5-4.51 0-1.37-.66-2.66-1.75-3.51 0-2.49-2.02-4.51-4.5-4.51-.44 0-.87.07-1.29.22-.99-2.22-3.22-3.73-5.71-3.73-3.45 0-6.25 2.81-6.25 6.27 0 .28.02.57.06.85-2.03.43-3.56 2.25-3.56 4.41 0 2.49 2.02 4.51 4.5 4.51zm-16.5-4.51c0-1.38 1.12-2.51 2.5-2.51h.32c.32 0 .63-.16.82-.42.19-.27.23-.61.13-.91-.18-.5-.26-.97-.26-1.42 0-2.35 1.91-4.27 4.25-4.27 1.98 0 3.72 1.41 4.15 3.35.07.32.29.59.6.71s.65.09.93-.09c.48-.31.9-.46 1.33-.46 1.38 0 2.5 1.13 2.49 2.52-.03.1-.05.21-.07.32-.06.41.14.82.51 1.02.83.46 1.33 1.27 1.33 2.16 0 1.38-1.12 2.51-2.5 2.51h-14.03c-1.38 0-2.5-1.13-2.5-2.51z"></path><path d="m94 36h-13c-.55 0-1 .45-1 1v2h-3c-.55 0-1 .45-1 1v17c0 .55.45 1 1 1h14c.55 0 1-.45 1-1v-2h2c.55 0 1-.45 1-1v-17c0-.55-.45-1-1-1zm-4 20h-12v-15h9.09l2.91 2.82zm3-3h-1v-9.6c0-.27-.11-.53-.3-.72l-3.5-3.4c-.19-.18-.44-.28-.7-.28h-5.5v-1h11z"></path><path d="m79 47c0 .55.45 1 1 1h8c.55 0 1-.45 1-1s-.45-1-1-1h-8c-.55 0-1 .45-1 1z"></path><path d="m88 49h-8c-.55 0-1 .45-1 1s.45 1 1 1h8c.55 0 1-.45 1-1s-.45-1-1-1z"></path><path d="m20.18 33.98c.16.09.33.13.5.13.35 0 .68-.18.87-.5.33-.56.67-1.11 1.02-1.65.3-.46.18-1.08-.28-1.39s-1.08-.18-1.39.28c-.38.57-.74 1.16-1.09 1.76-.28.48-.11 1.09.36 1.37z"></path><path d="m23.81 29.6c.29 0 .58-.12.77-.37.71-.87 1.48-1.72 2.29-2.51.39-.39.39-1.02 0-1.41s-1.02-.39-1.41 0c-.85.85-1.67 1.74-2.43 2.67-.35.43-.29 1.06.14 1.41.19.15.41.23.63.23z"></path><path d="m28.78 24.67c.22 0 .44-.07.63-.22.88-.71 1.81-1.38 2.75-1.99.46-.3.6-.92.29-1.38s-.92-.6-1.38-.3c-1 .65-1.98 1.36-2.92 2.11-.43.35-.5.98-.15 1.41.2.25.49.37.78.37z"></path><path d="m34.65 20.87c.15 0 .31-.04.45-.11.58-.29 1.16-.57 1.75-.83.51-.22.74-.81.52-1.32-.22-.5-.81-.74-1.32-.52-.63.28-1.25.57-1.86.88-.49.25-.69.85-.44 1.35.18.35.53.55.89.55z"></path><path d="m78.45 33.62c.18.32.52.5.87.5.17 0 .34-.04.5-.13.48-.28.64-.89.36-1.37-.34-.6-.71-1.18-1.09-1.76-.3-.46-.93-.59-1.39-.28-.46.3-.59.92-.28 1.39.36.54.7 1.09 1.02 1.65z"></path><path d="m67.84 22.46c.95.61 1.87 1.28 2.75 1.99.19.15.41.22.63.22.29 0 .58-.13.78-.37.35-.43.28-1.06-.15-1.41-.94-.75-1.92-1.46-2.92-2.11-.46-.3-1.08-.17-1.38.3-.3.46-.17 1.08.29 1.38z"></path><path d="m75.42 29.23c.2.24.48.37.77.37.22 0 .45-.07.63-.23.43-.35.49-.98.14-1.41-.76-.92-1.57-1.82-2.43-2.67-.39-.39-1.02-.39-1.41 0s-.39 1.03 0 1.41c.8.8 1.57 1.64 2.29 2.51z"></path><path d="m63.14 19.93c.59.26 1.18.54 1.75.83.15.07.3.11.45.11.36 0 .71-.2.89-.55.25-.49.06-1.09-.44-1.35-.61-.31-1.23-.6-1.86-.88-.51-.22-1.1.01-1.32.52s0 1.1.52 1.32z"></path><path d="m69.67 60.91c-3.14 2.25-14.31 13.68-14.76 14.14-1.66 1.57-3.83 2.44-6.11 2.44h-9.57c-.53 0-2.27-.18-2.27-2.37s1.93-2.32 2.32-2.33h10c1.55-.07 4.49-1.1 4.49-4.49 0-1.13-.35-1.98-.88-2.61 2.04-.4 4.03-1.15 5.4-1.94l1.3 1.33c.37.38 1.05.38 1.43 0l3.43-3.51c.38-.39.38-1.01 0-1.4l-1.3-1.33c.96-1.54 1.64-3.22 2.03-5.01h1.82c.55 0 1-.45 1-1v-4.96c0-.55-.45-1-1-1h-1.82c-.39-1.79-1.07-3.46-2.03-5.01l1.3-1.33c.38-.39.38-1.01 0-1.4l-3.43-3.51c-.37-.38-1.05-.38-1.43 0l-1.28 1.31c-1.5-.97-3.14-1.66-4.88-2.06v-1.88c0-.55-.45-1-1-1h-4.86c-.55 0-1 .45-1 1v1.88c-1.74.4-3.38 1.09-4.88 2.06l-1.28-1.31c-.37-.38-1.05-.38-1.43 0l-3.43 3.51c-.38.39-.38 1.01 0 1.4l1.3 1.33c-.96 1.54-1.64 3.22-2.03 5.01h-1.82c-.55 0-1 .45-1 1v4.96c0 .55.45 1 1 1h1.82c.39 1.79 1.07 3.46 2.03 5.01l-1.3 1.33c-.38.39-.38 1.01 0 1.4l1.98 2.02c-.66-.27-1.34-.65-2.03-1.16-1.64-1.22-3.58-1.86-5.62-1.86h-.92c-2.29 0-4.51.84-6.23 2.36l-15.39 13.58c-.21.18-.33.44-.34.72 0 .27.09.54.29.74l14.53 14.75c.19.19.44.3.71.3.27 0 .53-.11.71-.31l3.19-3.32c1.02-.93 2.35-1.45 3.72-1.45h22.98c2.2 0 4.29-.96 5.71-2.63l14.67-16.31c3.12-3.63 2.85-6.43 1.56-7.85-1.32-1.44-3.59-1.54-5.41-.23zm-33.03-8.24c-.08-.48-.5-.84-.99-.84h-1.65v-2.96h1.65c.49 0 .91-.35.99-.84.34-2.08 1.12-4.01 2.32-5.72.28-.39.23-.93-.11-1.27l-1.18-1.21 2.03-2.08 1.16 1.18c.35.36.9.4 1.3.11 1.67-1.22 3.55-2.01 5.59-2.36.48-.08.83-.5.83-.99v-1.7h2.86v1.7c0 .49.35.9.83.99 2.03.35 3.91 1.14 5.59 2.36.4.29.96.25 1.3-.11l1.16-1.18 2.03 2.08-1.18 1.21c-.34.34-.38.88-.11 1.27 1.2 1.71 1.98 3.64 2.32 5.72.08.48.5.84.99.84h1.65v2.96h-1.65c-.49 0-.91.35-.99.84-.34 2.08-1.12 4.01-2.32 5.72-.28.39-.23.93.11 1.27l1.18 1.21-2.03 2.08-1.16-1.18c-.35-.35-.9-.4-1.3-.11-3.85 2.7-11.56 3.53-15.69 0-.4-.29-.95-.24-1.3.11l-1.16 1.18-2.03-2.08 1.18-1.21c.34-.34.38-.88.11-1.27-1.2-1.71-1.98-3.64-2.32-5.72zm35.38 15-14.67 16.31c-1.05 1.24-2.59 1.94-4.2 1.94h-22.99c-1.88 0-3.68.7-5.12 2.02l-2.52 2.62-13.07-13.26 14.6-12.88c1.36-1.2 3.1-1.86 4.91-1.86h.92c1.6 0 3.13.51 4.42 1.47 1.83 1.36 3.61 2.02 5.46 2.02h9.38c.44 0 2.63.16 2.63 2.25 0 2.23-2.15 2.46-2.53 2.49h-9.95c-.19 0-1.91.01-3.16 1.24-.78.77-1.17 1.81-1.17 3.08s.4 2.36 1.19 3.14c1.23 1.22 2.89 1.23 3.09 1.23h9.56c2.79 0 5.45-1.06 7.51-3.01.11-.12 11.52-11.79 14.52-13.93.97-.69 2.16-.71 2.77-.05.68.75.67 2.56-1.58 5.18z"></path></svg>