<svg id="line" height="512" viewBox="0 0 64 64" width="512" xmlns="http://www.w3.org/2000/svg"><path d="m55.76221 31.2627h-1.74021v-2.416c-1.20736-29.20937-42.83639-29.21108-44.044.0001v2.4159h-1.74021a4.24193 4.24193 0 0 0 -4.23779 4.2373v5.19922a4.24277 4.24277 0 0 0 4.23779 4.23828h1.74021v4.89355a5.248 5.248 0 0 0 5.24218 5.24219h8.92518a2.99364 2.99364 0 0 0 2.84729 2.10156h4.21777c3.98633-.08789 3.984-6.11865-.00006-6.2041h-4.21768a2.99376 2.99376 0 0 0 -2.8476 2.10254h-8.92487a3.24574 3.24574 0 0 1 -3.24221-3.24219v-2.26623c2.77881 1.78192 6.86853-.13849 6.80609-3.5835l.00006-11.76257a4.27 4.27 0 0 0 -4.56836-4.2373 4.19824 4.19824 0 0 0 -2.22681.64794 20.01207 20.01207 0 0 1 40.022-.00006 4.19872 4.19872 0 0 0 -2.22681-.64788 4.26994 4.26994 0 0 0 -4.56836 4.2373v11.7627a4.41985 4.41985 0 0 0 8.68787.956l1.85852.00006a4.24277 4.24277 0 0 0 4.2378-4.23829v-5.19922a4.24193 4.24193 0 0 0 -4.23779-4.2373zm-45.78421 11.6748h-1.74021a2.24048 2.24048 0 0 1 -2.23779-2.23828v-5.19922a2.24027 2.24027 0 0 1 2.23779-2.2373h1.74021zm17.01468 10.0332h4.21777a1.0365 1.0365 0 0 1 .99994 1.2041 1.0009 1.0009 0 0 1 -.99994 1h-4.21777a1.03662 1.03662 0 0 1 -1-1.2041 1.001 1.001 0 0 1 1-1zm-12.77686-22.98925a2.28568 2.28568 0 0 1 2.56836 2.2373v11.7627c-.02533 2.98555-4.78018 2.98955-4.80618-.00007-.00763-.01684.00549-11.69159 0-11.71868a2.24169 2.24169 0 0 1 2.23782-2.28125zm37.80615 14a2.28561 2.28561 0 0 1 -2.56836 2.23724 2.24018 2.24018 0 0 1 -2.23779-2.23724v-11.7627a2.24027 2.24027 0 0 1 2.23779-2.2373 2.28583 2.28583 0 0 1 2.56839 2.28125s.00724 11.67657 0 11.71875zm5.97803-3.28223a2.24048 2.24048 0 0 1 -2.23779 2.23828h-1.74021c.00324-2.34894-.00232-7.36249 0-9.6748h1.74024a2.24027 2.24027 0 0 1 2.23776 2.2373z"></path><path d="m32 20.28223a9.56381 9.56381 0 0 0 -6.69482 16.40234v5.60059a1.00677 1.00677 0 0 0 1.70166.71283l3.71679-3.65815a9.57162 9.57162 0 1 0 1.27637-19.05761zm-1.42725 17.00586a1.005 1.005 0 0 0 -.89013.26953l-2.37744 2.33984v-3.64646a.99851.99851 0 0 0 -.33448-.7461 7.58256 7.58256 0 0 1 -2.54345-5.64941c.35406-10.02081 14.791-10.02277 15.1455.00012a7.5635 7.5635 0 0 1 -9 7.43248z"></path><path d="m28.39624 28.98108a1.04961 1.04961 0 0 0 .00006 2.099 1.04961 1.04961 0 0 0 -.00006-2.099z"></path><path d="m32 28.98108a1.04961 1.04961 0 0 0 .00006 2.099 1.04961 1.04961 0 0 0 -.00006-2.099z"></path><path d="m35.60376 28.98108a1.04961 1.04961 0 0 0 .00006 2.099 1.04961 1.04961 0 0 0 -.00006-2.099z"></path></svg>