<svg xmlns="http://www.w3.org/2000/svg" version="1.1" xmlns:xlink="http://www.w3.org/1999/xlink" width="512" height="512" x="0" y="0" viewBox="0 0 128 128" style="enable-background:new 0 0 512 512" xml:space="preserve" class=""><g transform="matrix(0.8000000000000002,0,0,0.8000000000000002,12.79999999999999,12.79999999999999)"><path d="m113.896 17.855-1.75-1.751a5.253 5.253 0 0 0-5.27-1.298A5.243 5.243 0 0 0 102.239 12h-2.476a5.243 5.243 0 0 0-4.639 2.806 5.253 5.253 0 0 0-5.268 1.298l-1.751 1.75a5.243 5.243 0 0 0-1.295 5.268A5.244 5.244 0 0 0 84 27.762v2.476a5.243 5.243 0 0 0 2.802 4.637 5.26 5.26 0 0 0 1.302 5.27l1.75 1.751a5.253 5.253 0 0 0 5.27 1.298A5.243 5.243 0 0 0 99.761 46h2.476a5.243 5.243 0 0 0 4.639-2.806 5.253 5.253 0 0 0 5.268-1.298l1.751-1.75a5.243 5.243 0 0 0 1.295-5.268 5.244 5.244 0 0 0 2.81-4.64v-2.476a5.243 5.243 0 0 0-2.81-4.64 5.243 5.243 0 0 0-1.295-5.267ZM114 30.238a1.238 1.238 0 0 1-1.238 1.238 1.178 1.178 0 0 0-1.127.827 11.055 11.055 0 0 1-.78 1.877 1.18 1.18 0 0 0 .211 1.384l.002.002a1.238 1.238 0 0 1 0 1.75l-1.751 1.752a1.238 1.238 0 0 1-1.75 0l-.003-.002a1.179 1.179 0 0 0-1.384-.21 11.06 11.06 0 0 1-1.877.78 1.178 1.178 0 0 0-.827 1.126A1.238 1.238 0 0 1 102.238 42h-2.476a1.238 1.238 0 0 1-1.238-1.238 1.178 1.178 0 0 0-.827-1.127 11.06 11.06 0 0 1-1.877-.78 1.179 1.179 0 0 0-1.384.211l-.002.002a1.238 1.238 0 0 1-1.751 0l-1.75-1.751a1.238 1.238 0 0 1 0-1.751v-.002a1.18 1.18 0 0 0 .211-1.384 11.055 11.055 0 0 1-.78-1.877 1.178 1.178 0 0 0-1.126-.827A1.238 1.238 0 0 1 88 30.238v-2.476a1.238 1.238 0 0 1 1.238-1.238 1.178 1.178 0 0 0 1.127-.827 11.06 11.06 0 0 1 .78-1.877 1.18 1.18 0 0 0-.211-1.384l-.002-.002a1.238 1.238 0 0 1 0-1.751l1.751-1.75a1.238 1.238 0 0 1 1.75 0h.003a1.178 1.178 0 0 0 1.384.211 11.05 11.05 0 0 1 1.877-.78 1.179 1.179 0 0 0 .827-1.126A1.238 1.238 0 0 1 99.762 16h2.476a1.238 1.238 0 0 1 1.238 1.238 1.179 1.179 0 0 0 .827 1.127 11.05 11.05 0 0 1 1.877.78 1.178 1.178 0 0 0 1.384-.211l.002-.002a1.238 1.238 0 0 1 1.751 0l1.75 1.751a1.238 1.238 0 0 1 0 1.751v.002a1.18 1.18 0 0 0-.211 1.384 11.06 11.06 0 0 1 .78 1.877 1.178 1.178 0 0 0 1.126.827A1.238 1.238 0 0 1 114 27.762ZM50.847 22.195a28.16 28.16 0 0 0 1.24 2.202c.304.492.67 1.041 1.076 1.645a42.87 42.87 0 0 1 3.045 5.087 1.975 1.975 0 0 0 1.108 2.743c.087.27.18.54.253.815a34.229 34.229 0 0 1 .296 4.012A3.46 3.46 0 0 0 61.348 42h5.304a3.46 3.46 0 0 0 3.483-3.303 35.001 35.001 0 0 1 .294-4.003c.075-.279.167-.55.255-.822a1.975 1.975 0 0 0 1.108-2.743 42.856 42.856 0 0 1 3.045-5.087c.405-.604.772-1.153 1.077-1.646.482-.778.887-1.498 1.24-2.202A15.555 15.555 0 0 0 79 15.152 14.973 14.973 0 0 0 64.248 0h-.496A14.973 14.973 0 0 0 49 15.152a15.558 15.558 0 0 0 1.847 7.043ZM66.16 38H61.84a33.036 33.036 0 0 0-.326-4h4.975a33.35 33.35 0 0 0-.327 4ZM63.752 4h.496A10.97 10.97 0 0 1 75 15.152a11.698 11.698 0 0 1-1.42 5.248c-.3.597-.65 1.216-1.067 1.892-.283.456-.624.964-1 1.524A43.58 43.58 0 0 0 67.908 30h-7.814a43.6 43.6 0 0 0-3.607-6.184c-.375-.56-.716-1.068-.998-1.523a24.891 24.891 0 0 1-1.067-1.893A11.701 11.701 0 0 1 53 15.152 10.97 10.97 0 0 1 63.752 4ZM127.999 58.93a2.02 2.02 0 0 0-.275-.927A2.042 2.042 0 0 0 126 57h-26a2.02 2.02 0 0 0-2 2v14a6.007 6.007 0 0 0 6 6h18a6.007 6.007 0 0 0 6-6V59l-.001-.07ZM120.233 61 113 66.703 105.767 61ZM124 73a2.002 2.002 0 0 1-2 2h-18a2.002 2.002 0 0 1-2-2v-9.876l9.762 7.696a2 2 0 0 0 2.476 0L124 63.124ZM6 46h18a6.007 6.007 0 0 0 6-6V18a6.007 6.007 0 0 0-6-6h-7v-2a2 2 0 0 0-4 0v2H6a6.007 6.007 0 0 0-6 6v22a6.007 6.007 0 0 0 6 6ZM4 18a2.002 2.002 0 0 1 2-2h18a2.002 2.002 0 0 1 2 2v22a2.002 2.002 0 0 1-2 2H6a2.002 2.002 0 0 1-2-2Z" fill="#000000" opacity="1" data-original="#000000"></path><path d="M12 27h6a2 2 0 0 0 0-4h-6a2 2 0 0 0 0 4ZM12 35h6a2 2 0 0 0 0-4h-6a2 2 0 0 0 0 4ZM1.247 69.495l.77 1.323c1.617 2.776 12.389 13.547 15.165 15.164l1.323.77q.097.057.197.108a10.44 10.44 0 0 0 14.205-4.889l.645-1.383a4.771 4.771 0 0 0-2.631-6.478l-6.199-2.352a5.554 5.554 0 0 0-4.664.339 34.087 34.087 0 0 1-4.157-4.158 5.552 5.552 0 0 0 .34-4.661l-2.35-6.199A4.797 4.797 0 0 0 9.428 54a4.736 4.736 0 0 0-2.017.448l-1.383.645a10.444 10.444 0 0 0-4.89 14.205q.052.1.108.197ZM7.72 58.718l1.383-.645a.77.77 0 0 1 1.048.425l2.35 6.198a1.543 1.543 0 0 1-.35 1.638l-.322.321a1.831 1.831 0 0 0-.14 2.434l.487.612a38.024 38.024 0 0 0 6.123 6.123l.612.486a1.831 1.831 0 0 0 2.434-.139l.321-.321a1.542 1.542 0 0 1 1.638-.351l6.198 2.35a.771.771 0 0 1 .425 1.048l-.645 1.383a6.44 6.44 0 0 1-8.764 3.016l-1.323-.77c-2.201-1.282-12.439-11.52-13.72-13.721l-.771-1.323a6.444 6.444 0 0 1 3.016-8.764ZM107.129 31.307 103 28.486v-3.402a2 2 0 1 0-4 0v4.458a2.001 2.001 0 0 0 .871 1.65l5 3.418a2 2 0 0 0 2.258-3.303ZM44.55 88l9.256-4.099A13.095 13.095 0 0 0 57.874 88h12.252a13.095 13.095 0 0 0 4.068-4.099L83.449 88h6.707a12.886 12.886 0 0 1 1.307.068 7.292 7.292 0 0 0-2.037-1.752 7.917 7.917 0 0 0-.722-.363L75 79.883v-6.081a21.687 21.687 0 0 0 2.974-10.084c.014-.096.026-3.148.026-3.148C78 52.536 71.72 46 64 46S50 52.536 50 60.57c0 0 .023 3.729.056 3.872A21.77 21.77 0 0 0 53 73.802v6.082l-13.703 6.068a7.937 7.937 0 0 0-.723.364 7.324 7.324 0 0 0-2.192 1.935A10.879 10.879 0 0 1 38.674 88ZM71 80.999c0 1.84-3.853 4.426-7 5.829-3.147-1.403-7-3.988-7-5.829v-2.544a10.904 10.904 0 0 0 14 0Zm-7-31a10.167 10.167 0 0 1 9.778 8.352 7.108 7.108 0 0 0-4.902-.108 8.663 8.663 0 0 1-6.202-.51 8.228 8.228 0 0 0-3.429-.758 7.636 7.636 0 0 0-1.786.21 10.682 10.682 0 0 0-3.28 1.391A10.18 10.18 0 0 1 64 50Zm-5.604 11.074a4.027 4.027 0 0 1 2.609.296 12.81 12.81 0 0 0 9.055.695 3.007 3.007 0 0 1 3.909 1.684C73.647 70.66 68.96 77 64 77c-4.817 0-9.387-5.975-9.943-12.648a6.862 6.862 0 0 1 4.34-3.278Z" fill="#000000" opacity="1" data-original="#000000"></path><circle cx="64.51" cy="110" r="3" fill="#000000" opacity="1" data-original="#000000"></circle><path d="M126 124h-2.86a8.25 8.25 0 1 0-14.115 0H93.911a6.954 6.954 0 0 0 .63-2.132l2.75-22A7 7 0 0 0 90.346 92H38.674a7 7 0 0 0-6.946 7.868l2.75 22a6.953 6.953 0 0 0 .63 2.132H22v-4.576a8.236 8.236 0 0 0 7.542-8.195 5.235 5.235 0 0 0-5.23-5.229H9a5.006 5.006 0 0 0-5 5v13H2a2 2 0 0 0 0 4h124a2 2 0 0 0 0-4ZM22 110h2.312a1.23 1.23 0 0 1 1.23 1.229 4.226 4.226 0 0 1-3.542 4.16Zm-4 14H8v-13a1.001 1.001 0 0 1 1-1h9Zm75.322-24.628-2.75 22A3.005 3.005 0 0 1 87.596 124H41.424a3.006 3.006 0 0 1-2.978-2.628l-2.75-22A3 3 0 0 1 38.674 96h51.672a2.999 2.999 0 0 1 2.976 3.372ZM116.083 124a4.25 4.25 0 1 1 4.25-4.25 4.255 4.255 0 0 1-4.25 4.25ZM64 74a4.967 4.967 0 0 0 3.536-1.465 2 2 0 1 0-2.83-2.827.998.998 0 0 1-1.412 0 2 2 0 1 0-2.83 2.827A4.967 4.967 0 0 0 64 74Z" fill="#000000" opacity="1" data-original="#000000"></path></g></svg>