<svg id="Layer_1" enable-background="new 0 0 468 468" height="512" viewBox="0 0 468 468" width="512" xmlns="http://www.w3.org/2000/svg"><g><path d="m209.647 410.231h-23.311c-2.762 0-5-2.239-5-5s2.238-5 5-5h23.311c2.762 0 5 2.239 5 5s-2.238 5-5 5z"></path><g><path d="m376.281 61.731-9.196-9.786c-1.892-2.012-1.793-5.177.22-7.067 2.011-1.893 5.178-1.793 7.068.22l5.564 5.92 15.696-16.595c1.897-2.007 5.062-2.095 7.069-.197 2.007 1.897 2.095 5.062.197 7.068l-19.34 20.448c-2.122 2.057-4.282 2.417-7.278-.011z"></path><g><circle cx="461" cy="132.862" r="6.5"></circle><g><path d="m432.285 152.692h-94.575c-2.762 0-5-2.239-5-5s2.238-5 5-5h94.575c2.762 0 5 2.239 5 5 0 2.762-2.238 5-5 5z"></path><path d="m369.711 118.253h-32.001c-2.762 0-5-2.239-5-5s2.238-5 5-5h32.001c2.762 0 5 2.239 5 5s-2.238 5-5 5z"></path><path d="m432.285 187.132h-94.575c-2.762 0-5-2.239-5-5s2.238-5 5-5h94.575c2.762 0 5 2.239 5 5s-2.238 5-5 5z"></path><path d="m432.285 221.572h-94.575c-2.762 0-5-2.239-5-5s2.238-5 5-5h94.575c2.762 0 5 2.239 5 5s-2.238 5-5 5z"></path></g><path d="m463 153.033c-2.762 0-5 2.239-5 5v73.379c0 8.259-6.729 14.978-15 14.978h-116.004c-8.272 0-15-6.719-15-14.978v-162.448c0-8.259 6.729-14.978 15-14.978h10.303c2.92 23.736 23.19 42.18 47.698 42.18 3.964 0 7.813-.492 11.5-1.401v13.322c0 2.761 2.238 5 5 5h61.503c4.368.146 6.715-5.684 3.465-8.605l-37.8-36.325c2.821-6.114 4.407-12.91 4.407-20.074-.001-26.513-21.567-48.083-48.075-48.083-25.127 0-45.8 19.385-47.887 43.986h-10.115c-13.786 0-25.001 11.205-25.001 24.978v162.448c0 13.773 11.215 24.978 25.001 24.978h116.003c13.786 0 25.001-11.205 25.001-24.978v-73.379c.001-2.761-2.237-5-4.999-5zm-39.59-76.057 27.171 26.11h-44.082v-11.995c.065-.033.116-.074.174-.111 6.574-3.337 12.287-8.132 16.697-13.97.013-.012.027-.017.04-.034zm-38.413-66.976c20.994 0 38.073 17.084 38.073 38.083s-17.08 38.083-38.073 38.083-38.073-17.084-38.073-38.083 17.08-38.083 38.073-38.083z"></path></g></g><g><g><g><ellipse cx="414.071" cy="332.571" rx="6.498" ry="6.498" transform="matrix(.423 -.906 .906 .423 -62.334 567.296)"></ellipse><ellipse cx="437.516" cy="350.6" rx="6.5" ry="6.5" transform="matrix(.766 -.643 .643 .766 -123.002 363.255)"></ellipse><ellipse cx="451.161" cy="376.87" rx="6.498" ry="6.498" transform="matrix(.966 -.259 .259 .966 -82.168 129.611)"></ellipse></g><path d="m393.998 379.274v-21.491c0-2.761-2.238-5-5-5s-5 2.239-5 5v21.491c-7.916 2.2-13.75 9.463-13.75 18.082 0 10.356 8.411 18.78 18.751 18.78s18.751-8.425 18.751-18.78c-.002-8.619-5.836-15.882-13.752-18.082zm-5 26.863c-4.825 0-8.75-3.939-8.75-8.781s3.925-8.781 8.75-8.781 8.75 3.939 8.75 8.781-3.925 8.781-8.75 8.781z"></path></g><g><path d="m465.682 418.842-7.87-19.524c-1.111-2.977-5.119-4.106-7.619-2.145l-15.055 11.184c-2.217 1.647-2.679 4.779-1.032 6.995s4.779 2.68 6.995 1.032l4.71-3.499c-7.832 26.407-32.035 45.107-60.59 45.107-34.887 0-63.268-28.448-63.268-63.417s28.382-63.417 63.268-63.417c2.762 0 5-2.239 5-5s-2.238-5-5-5c-41.885-.148-75.731 35.807-73.136 77.682h-24.415l8.643-49.403c.592-2.958-1.911-5.934-4.925-5.862h-17.03v-6.357c0-16.067-10.18-30.448-25.331-35.787l-21.415-7.546v-6.518c21.274.571 39.013-16.638 38.98-37.942v-43.114c0-27.028-19.039-50.474-45.395-56.086-38.657-24.348-93.403 7.118-91.805 52.812v46.387c0 19.973 15.513 36.379 35.118 37.827v6.738l-18.548 7.124c-14.556 5.591-24.336 19.825-24.336 35.42v7.041h-17.03c-3.014-.072-5.517 2.904-4.925 5.862l19.816 113.264c.418 2.393 2.496 4.138 4.925 4.138h147.161c2.429 0 4.507-1.746 4.925-4.138l9.422-53.858h27.431c6.646 33.676 36.34 59.151 71.869 59.151 30.749.428 59.967-20.72 69.395-49.854l1.79 4.441c2.378 6.075 11.78 2.224 9.277-3.738zm-219.979-107.977c11.158 3.931 18.654 14.522 18.654 26.355v6.357h-61.142l.012-5.488 22.45-34.281zm-28.06-13.04-19.643 29.994-23.489-32.054v-22.182c12.22 8.753 29.987 9.825 43.101 2.347v21.497c0 .135.02.266.031.398zm-19.651-26.86c-19.508 0-35.38-18.42-35.38-41.06 0-4.503.634-8.915 1.874-13.151 14.82-5.715 27.99-15.038 38.347-27.293 9.519 10.888 19.461 21.493 29.721 31.758.533 2.857.818 5.77.818 8.686 0 22.64-15.872 41.06-35.38 41.06zm58.599-21.538c.033 15.798-13.221 28.502-28.979 27.942v-8.83c9.247-8.993 15.249-22.103 15.718-36.778 4.372 4.177 8.788 8.292 13.261 12.332zm-39.796-90.185c.497.299 1.041.509 1.609.621 22.127 4.358 38.187 23.893 38.187 46.451v24.187c-17.639-16.394-34.487-33.889-50.135-52.132-1.97-2.418-6.023-2.269-7.814.28-14.088 19.308-35.706 31.106-59.25 34.236v-9.846c-1.34-38.531 45.067-64.794 77.403-43.797zm-77.403 90.185v-26.377c3.938-.73 10.247-1.772 14.044-2.793-.543 3.165-.824 6.387-.824 9.648 0 13.254 4.513 25.342 11.899 34.427v12.897c-14.086-1.419-25.119-13.345-25.119-27.802zm-7.765 87.109c0-11.486 7.202-21.968 17.921-26.086l18.203-6.991 25.475 34.765-.012 5.354h-61.588v-7.042zm135.744 120.303h-138.758l-18.066-103.261h174.89z"></path><path d="m84.264 408.843h-25.819c-2.762 0-5-2.239-5-5v-141.198c0-2.761 2.238-5 5-5s5 2.239 5 5v136.198h20.819c2.762 0 5 2.239 5 5s-2.238 5-5 5z"></path><path d="m338.176 320.08c-2.762 0-5-2.239-5-5v-33.722c0-2.761 2.238-5 5-5s5 2.239 5 5v33.722c0 2.761-2.238 5-5 5z"></path><path d="m29.271 227.677-27.841-28.165c-2.05-1.984-1.869-5.596.366-7.366l193.315-160.086c1.862-1.54 4.557-1.53 6.405.022l85.029 71.402c2.114 1.776 2.389 4.93.613 7.044s-4.929 2.39-7.045.614l-81.835-68.721-185.897 153.944 20.765 21.008 161.944-135.606c1.867-1.564 4.592-1.554 6.447.023l83.517 70.958c2.105 1.788 2.361 4.944.573 7.048-1.789 2.105-4.944 2.36-7.048.573l-80.303-68.227-162.239 135.853c-.933.781-3.93 2.002-6.766-.318z"></path></g><circle cx="58.988" cy="235.749" r="6.5"></circle></g></g></svg>