<svg id="Layer_1" height="512" viewBox="0 0 50 50" width="512" xmlns="http://www.w3.org/2000/svg"><g fill="none" stroke="#000" stroke-linecap="round" stroke-linejoin="round" stroke-miterlimit="10"><g><path d="m9.2 6.8h-4.4c-1.8 0-3.3 1.5-3.3 3.3v27.7c0 1.8 1.5 3.3 3.3 3.3h19"></path><path d="m23.5 6.8h4.5c1.8 0 3.3 1.5 3.3 3.3v13.1"></path><path d="m9.2 10.1h-4.4v27.7h17.9"></path><path d="m23.5 10.1h4.5v14.8"></path><path d="m23.5 11h-14.3v-4.4c0-1.1.9-2 2-2h10.3c1.1 0 2 .9 2 2z"></path><path d="m12.9 4.6v-2c0-.6.5-1.1 1.1-1.1h4.7c.6 0 1.1.5 1.1 1.1v2"></path><g><path d="m9.5 16.8h13.7"></path><path d="m14.9 21h8.3"></path><path d="m9.5 21h2.4"></path><path d="m20.4 25.2h2.8"></path><path d="m9.5 25.2h7.9"></path><path d="m9.5 29.4h10.6"></path><path d="m18.2 33.6h.3"></path><path d="m9.5 33.6h5.7"></path></g></g><circle cx="35.5" cy="35.5" r="10.5"></circle><circle cx="35.5" cy="35.5" r="13"></circle><path d="m35.5 25v1.8"></path><path d="m35.5 44.3v1.8"></path><path d="m46.1 35.5h-1.8"></path><path d="m26.8 35.5h-1.8"></path><path d="m26.4 40.8 1.5-.9"></path><path d="m43.1 31.2 1.6-.9"></path><path d="m30.3 26.4.9 1.6"></path><path d="m39.9 43.1.9 1.6"></path><path d="m44.7 40.8-1.6-.9"></path><path d="m27.9 31.2-1.5-.9"></path><path d="m30.3 44.7.9-1.6"></path><path d="m39.9 28 .9-1.6"></path><circle cx="35.5" cy="35.5" r=".9"></circle><path d="m35.5 34.6v-2.3"></path><path d="m34.6 32.5.9-.9.9.9"></path><path d="m36.6 35.5h5"></path><path d="m41.4 34.6.9.9-.9.9"></path></g></svg>